<svg width="86" height="54" viewBox="0 0 86 54" fill="none" xmlns="http://www.w3.org/2000/svg">
<path d="M1.76136 46V22.7273H7.38636V41.4318H17.0682V46H1.76136Z" fill="#20178E"/>
<path d="M62.5682 22.7273V46H57.7955L48.5341 32.5682H48.3864V46H42.7614V22.7273H47.6023L56.7614 36.1364H56.9545V22.7273H62.5682Z" fill="#C20000"/>
<rect x="23.3333" y="30.5" width="6.33333" height="15.5" rx="3.16667" fill="#C26209"/>
<path d="M19 29C23.6875 26.3333 29.3125 26.3333 34 29" stroke="#F10000" stroke-width="3" stroke-linecap="round"/>
<path d="M15.9581 24.4431C23.4188 21.0106 29.7313 21.1777 37 25" stroke="#E0CA04" stroke-width="3" stroke-linecap="round"/>
<path d="M15 19.625C24 16.125 29 16.125 38 19.625" stroke="#03DE19" stroke-width="3" stroke-linecap="round"/>
<path d="M74.7643 31.509C72.9386 31.4951 71.3656 31.1232 70.0454 30.3934C68.7328 29.6561 67.7256 28.6143 67.0237 27.2681C66.3294 25.9142 65.9894 24.3093 66.0035 22.4533C66.0172 20.6503 66.3853 19.0773 67.1077 17.7343C67.8301 16.3837 68.8419 15.3384 70.143 14.5983C71.4442 13.8506 72.9736 13.4834 74.7311 13.4968C75.9735 13.5063 77.1083 13.7081 78.1357 14.1023C79.163 14.4965 80.0488 15.0753 80.793 15.8385C81.5372 16.6018 82.1134 17.5418 82.5215 18.6586C82.9298 19.7678 83.1284 21.0383 83.1175 22.4701L83.1069 23.8564L67.9369 23.7408L67.9615 20.5136L77.9612 20.5898C77.9582 19.9989 77.822 19.4713 77.5528 19.0071C77.2836 18.5429 76.9114 18.1802 76.4361 17.919C75.9684 17.6503 75.4278 17.5136 74.8142 17.5089C74.193 17.5042 73.6351 17.6401 73.1405 17.9167C72.6461 18.1856 72.2531 18.5576 71.9616 19.0327C71.6701 19.5002 71.5145 20.0331 71.4948 20.6315L71.4698 23.9155C71.4644 24.6276 71.5998 25.2536 71.876 25.7936C72.1522 26.326 72.5468 26.7419 73.0597 27.0413C73.5726 27.3407 74.185 27.4931 74.8971 27.4985C75.3896 27.5022 75.837 27.4375 76.2396 27.3042C76.6421 27.1709 76.9883 26.9727 77.2782 26.7098C77.5681 26.4468 77.7865 26.1227 77.9334 25.7375L83.0344 25.9241C82.8135 27.0664 82.3401 28.059 81.6139 28.902C80.8954 29.7374 79.9548 30.3856 78.7922 30.8464C77.6296 31.2997 76.287 31.5206 74.7643 31.509Z" fill="#196088"/>
<line x1="69.5" y1="44.5" x2="79.5" y2="44.5" stroke="#FF0505" stroke-width="3" stroke-linecap="round"/>
<line x1="70.5" y1="39.5" x2="78.5" y2="39.5" stroke="#E0CA04" stroke-width="3" stroke-linecap="round"/>
<line x1="71.5" y1="34.5" x2="77.5" y2="34.5" stroke="#03DE19" stroke-width="3" stroke-linecap="round"/>
</svg>
